<mxfile host="Electron" modified="2024-05-15T17:14:51.655Z" agent="Mozilla/5.0 (Macintosh; Intel Mac OS X 10_15_7) AppleWebKit/537.36 (KHTML, like Gecko) draw.io/24.4.0 Chrome/120.0.6099.109 Electron/28.1.0 Safari/537.36" etag="czbj5wEyz_hvObEQrgyC" version="24.4.0" type="device">
  <diagram id="C5RBs43oDa-KdzZeNtuy" name="Page-1">
    <mxGraphModel dx="812" dy="743" grid="1" gridSize="10" guides="1" tooltips="1" connect="1" arrows="1" fold="1" page="1" pageScale="1" pageWidth="827" pageHeight="1169" math="0" shadow="0">
      <root>
        <mxCell id="WIyWlLk6GJQsqaUBKTNV-0" />
        <mxCell id="WIyWlLk6GJQsqaUBKTNV-1" parent="WIyWlLk6GJQsqaUBKTNV-0" />
        <mxCell id="Q23FpGF2o1uoYtGawiYn-1" value="" style="edgeStyle=orthogonalEdgeStyle;rounded=0;orthogonalLoop=1;jettySize=auto;html=1;" parent="WIyWlLk6GJQsqaUBKTNV-1" source="WIyWlLk6GJQsqaUBKTNV-3" target="Q23FpGF2o1uoYtGawiYn-0" edge="1">
          <mxGeometry relative="1" as="geometry" />
        </mxCell>
        <mxCell id="WIyWlLk6GJQsqaUBKTNV-3" value="main.py executes" style="rounded=1;whiteSpace=wrap;html=1;fontSize=12;glass=0;strokeWidth=1;shadow=0;" parent="WIyWlLk6GJQsqaUBKTNV-1" vertex="1">
          <mxGeometry x="160" y="80" width="120" height="40" as="geometry" />
        </mxCell>
        <mxCell id="Q23FpGF2o1uoYtGawiYn-3" value="" style="edgeStyle=orthogonalEdgeStyle;rounded=0;orthogonalLoop=1;jettySize=auto;html=1;" parent="WIyWlLk6GJQsqaUBKTNV-1" source="Q23FpGF2o1uoYtGawiYn-0" target="Q23FpGF2o1uoYtGawiYn-2" edge="1">
          <mxGeometry relative="1" as="geometry" />
        </mxCell>
        <mxCell id="Q23FpGF2o1uoYtGawiYn-0" value="Connect to MongoDB" style="rounded=1;whiteSpace=wrap;html=1;fontSize=12;glass=0;strokeWidth=1;shadow=0;" parent="WIyWlLk6GJQsqaUBKTNV-1" vertex="1">
          <mxGeometry x="160" y="200" width="120" height="40" as="geometry" />
        </mxCell>
        <mxCell id="Q23FpGF2o1uoYtGawiYn-5" value="" style="edgeStyle=orthogonalEdgeStyle;rounded=0;orthogonalLoop=1;jettySize=auto;html=1;" parent="WIyWlLk6GJQsqaUBKTNV-1" source="Q23FpGF2o1uoYtGawiYn-2" target="Q23FpGF2o1uoYtGawiYn-4" edge="1">
          <mxGeometry relative="1" as="geometry" />
        </mxCell>
        <mxCell id="Q23FpGF2o1uoYtGawiYn-6" value="FOR EACH" style="edgeLabel;html=1;align=center;verticalAlign=middle;resizable=0;points=[];" parent="Q23FpGF2o1uoYtGawiYn-5" vertex="1" connectable="0">
          <mxGeometry x="-0.1333" y="1" relative="1" as="geometry">
            <mxPoint as="offset" />
          </mxGeometry>
        </mxCell>
        <mxCell id="Q23FpGF2o1uoYtGawiYn-2" value="JXA Retrieves Media Items from Photos" style="rounded=1;whiteSpace=wrap;html=1;fontSize=12;glass=0;strokeWidth=1;shadow=0;" parent="WIyWlLk6GJQsqaUBKTNV-1" vertex="1">
          <mxGeometry x="160" y="320" width="120" height="40" as="geometry" />
        </mxCell>
        <mxCell id="Q23FpGF2o1uoYtGawiYn-8" value="" style="edgeStyle=orthogonalEdgeStyle;rounded=0;orthogonalLoop=1;jettySize=auto;html=1;" parent="WIyWlLk6GJQsqaUBKTNV-1" source="Q23FpGF2o1uoYtGawiYn-4" target="Q23FpGF2o1uoYtGawiYn-7" edge="1">
          <mxGeometry relative="1" as="geometry" />
        </mxCell>
        <mxCell id="Q23FpGF2o1uoYtGawiYn-9" value="No?" style="edgeLabel;html=1;align=center;verticalAlign=middle;resizable=0;points=[];" parent="Q23FpGF2o1uoYtGawiYn-8" vertex="1" connectable="0">
          <mxGeometry x="-0.1091" y="3" relative="1" as="geometry">
            <mxPoint as="offset" />
          </mxGeometry>
        </mxCell>
        <mxCell id="Q23FpGF2o1uoYtGawiYn-11" value="" style="edgeStyle=orthogonalEdgeStyle;rounded=0;orthogonalLoop=1;jettySize=auto;html=1;" parent="WIyWlLk6GJQsqaUBKTNV-1" source="Q23FpGF2o1uoYtGawiYn-4" target="Q23FpGF2o1uoYtGawiYn-10" edge="1">
          <mxGeometry relative="1" as="geometry" />
        </mxCell>
        <mxCell id="Q23FpGF2o1uoYtGawiYn-12" value="Yes?" style="edgeLabel;html=1;align=center;verticalAlign=middle;resizable=0;points=[];" parent="Q23FpGF2o1uoYtGawiYn-11" vertex="1" connectable="0">
          <mxGeometry x="-0.18" y="1" relative="1" as="geometry">
            <mxPoint as="offset" />
          </mxGeometry>
        </mxCell>
        <mxCell id="Q23FpGF2o1uoYtGawiYn-4" value="Media Item Exists in DB?" style="rhombus;whiteSpace=wrap;html=1;rounded=1;glass=0;strokeWidth=1;shadow=0;" parent="WIyWlLk6GJQsqaUBKTNV-1" vertex="1">
          <mxGeometry x="130" y="420" width="180" height="100" as="geometry" />
        </mxCell>
        <mxCell id="Q23FpGF2o1uoYtGawiYn-15" style="edgeStyle=orthogonalEdgeStyle;rounded=0;orthogonalLoop=1;jettySize=auto;html=1;exitX=0.5;exitY=1;exitDx=0;exitDy=0;entryX=0.5;entryY=0;entryDx=0;entryDy=0;" parent="WIyWlLk6GJQsqaUBKTNV-1" source="Q23FpGF2o1uoYtGawiYn-7" target="Q23FpGF2o1uoYtGawiYn-13" edge="1">
          <mxGeometry relative="1" as="geometry" />
        </mxCell>
        <mxCell id="Q23FpGF2o1uoYtGawiYn-7" value="Write Media Item to Mongo" style="shape=process;whiteSpace=wrap;html=1;backgroundOutline=1;rounded=1;glass=0;strokeWidth=1;shadow=0;" parent="WIyWlLk6GJQsqaUBKTNV-1" vertex="1">
          <mxGeometry x="420" y="440" width="120" height="60" as="geometry" />
        </mxCell>
        <mxCell id="Q23FpGF2o1uoYtGawiYn-14" value="" style="edgeStyle=orthogonalEdgeStyle;rounded=0;orthogonalLoop=1;jettySize=auto;html=1;" parent="WIyWlLk6GJQsqaUBKTNV-1" source="Q23FpGF2o1uoYtGawiYn-10" target="Q23FpGF2o1uoYtGawiYn-13" edge="1">
          <mxGeometry relative="1" as="geometry" />
        </mxCell>
        <mxCell id="Q23FpGF2o1uoYtGawiYn-10" value="Add any updated data from Photos to Mongo" style="shape=process;whiteSpace=wrap;html=1;backgroundOutline=1;rounded=1;glass=0;strokeWidth=1;shadow=0;" parent="WIyWlLk6GJQsqaUBKTNV-1" vertex="1">
          <mxGeometry x="160" y="620" width="120" height="60" as="geometry" />
        </mxCell>
        <mxCell id="Q23FpGF2o1uoYtGawiYn-17" value="" style="edgeStyle=orthogonalEdgeStyle;rounded=0;orthogonalLoop=1;jettySize=auto;html=1;" parent="WIyWlLk6GJQsqaUBKTNV-1" source="Q23FpGF2o1uoYtGawiYn-13" target="Q23FpGF2o1uoYtGawiYn-16" edge="1">
          <mxGeometry relative="1" as="geometry" />
        </mxCell>
        <mxCell id="Q23FpGF2o1uoYtGawiYn-18" value="Yes?" style="edgeLabel;html=1;align=center;verticalAlign=middle;resizable=0;points=[];" parent="Q23FpGF2o1uoYtGawiYn-17" vertex="1" connectable="0">
          <mxGeometry x="-0.1818" y="1" relative="1" as="geometry">
            <mxPoint as="offset" />
          </mxGeometry>
        </mxCell>
        <mxCell id="Q23FpGF2o1uoYtGawiYn-20" value="" style="edgeStyle=orthogonalEdgeStyle;rounded=0;orthogonalLoop=1;jettySize=auto;html=1;entryX=0;entryY=0.5;entryDx=0;entryDy=0;" parent="WIyWlLk6GJQsqaUBKTNV-1" source="Q23FpGF2o1uoYtGawiYn-13" target="Q23FpGF2o1uoYtGawiYn-22" edge="1">
          <mxGeometry relative="1" as="geometry">
            <mxPoint x="700" y="650" as="targetPoint" />
          </mxGeometry>
        </mxCell>
        <mxCell id="Q23FpGF2o1uoYtGawiYn-21" value="No?" style="edgeLabel;html=1;align=center;verticalAlign=middle;resizable=0;points=[];" parent="Q23FpGF2o1uoYtGawiYn-20" vertex="1" connectable="0">
          <mxGeometry x="-0.1167" y="2" relative="1" as="geometry">
            <mxPoint as="offset" />
          </mxGeometry>
        </mxCell>
        <mxCell id="Q23FpGF2o1uoYtGawiYn-13" value="Media Item has less than 5 keywords?" style="rhombus;whiteSpace=wrap;html=1;rounded=1;glass=0;strokeWidth=1;shadow=0;" parent="WIyWlLk6GJQsqaUBKTNV-1" vertex="1">
          <mxGeometry x="380" y="590" width="200" height="120" as="geometry" />
        </mxCell>
        <mxCell id="Q23FpGF2o1uoYtGawiYn-44" style="edgeStyle=orthogonalEdgeStyle;rounded=0;orthogonalLoop=1;jettySize=auto;html=1;exitX=0;exitY=0.5;exitDx=0;exitDy=0;entryX=1;entryY=0.5;entryDx=0;entryDy=0;" parent="WIyWlLk6GJQsqaUBKTNV-1" source="Q23FpGF2o1uoYtGawiYn-16" target="Q23FpGF2o1uoYtGawiYn-43" edge="1">
          <mxGeometry relative="1" as="geometry" />
        </mxCell>
        <mxCell id="Q23FpGF2o1uoYtGawiYn-16" value="JXA Exports a local copy of media item" style="shape=process;whiteSpace=wrap;html=1;backgroundOutline=1;rounded=1;glass=0;strokeWidth=1;shadow=0;" parent="WIyWlLk6GJQsqaUBKTNV-1" vertex="1">
          <mxGeometry x="420" y="820" width="120" height="60" as="geometry" />
        </mxCell>
        <mxCell id="Q23FpGF2o1uoYtGawiYn-23" style="edgeStyle=orthogonalEdgeStyle;rounded=0;orthogonalLoop=1;jettySize=auto;html=1;exitX=0.5;exitY=1;exitDx=0;exitDy=0;entryX=1;entryY=0.5;entryDx=0;entryDy=0;" parent="WIyWlLk6GJQsqaUBKTNV-1" source="Q23FpGF2o1uoYtGawiYn-22" target="Q23FpGF2o1uoYtGawiYn-16" edge="1">
          <mxGeometry relative="1" as="geometry" />
        </mxCell>
        <mxCell id="Q23FpGF2o1uoYtGawiYn-24" value="Yes?" style="edgeLabel;html=1;align=center;verticalAlign=middle;resizable=0;points=[];" parent="Q23FpGF2o1uoYtGawiYn-23" vertex="1" connectable="0">
          <mxGeometry x="0.0222" y="-1" relative="1" as="geometry">
            <mxPoint as="offset" />
          </mxGeometry>
        </mxCell>
        <mxCell id="Q23FpGF2o1uoYtGawiYn-26" value="" style="edgeStyle=orthogonalEdgeStyle;rounded=0;orthogonalLoop=1;jettySize=auto;html=1;" parent="WIyWlLk6GJQsqaUBKTNV-1" source="Q23FpGF2o1uoYtGawiYn-22" target="Q23FpGF2o1uoYtGawiYn-25" edge="1">
          <mxGeometry relative="1" as="geometry" />
        </mxCell>
        <mxCell id="Q23FpGF2o1uoYtGawiYn-29" value="No?" style="edgeLabel;html=1;align=center;verticalAlign=middle;resizable=0;points=[];" parent="Q23FpGF2o1uoYtGawiYn-26" vertex="1" connectable="0">
          <mxGeometry x="-0.325" y="1" relative="1" as="geometry">
            <mxPoint as="offset" />
          </mxGeometry>
        </mxCell>
        <mxCell id="Q23FpGF2o1uoYtGawiYn-22" value="Media Item missing description?" style="rhombus;whiteSpace=wrap;html=1;rounded=1;glass=0;strokeWidth=1;shadow=0;" parent="WIyWlLk6GJQsqaUBKTNV-1" vertex="1">
          <mxGeometry x="660" y="590" width="200" height="120" as="geometry" />
        </mxCell>
        <mxCell id="Q23FpGF2o1uoYtGawiYn-27" style="edgeStyle=orthogonalEdgeStyle;rounded=0;orthogonalLoop=1;jettySize=auto;html=1;exitX=0.5;exitY=1;exitDx=0;exitDy=0;entryX=1;entryY=0.75;entryDx=0;entryDy=0;" parent="WIyWlLk6GJQsqaUBKTNV-1" source="Q23FpGF2o1uoYtGawiYn-25" target="Q23FpGF2o1uoYtGawiYn-16" edge="1">
          <mxGeometry relative="1" as="geometry" />
        </mxCell>
        <mxCell id="Q23FpGF2o1uoYtGawiYn-28" value="Yes?" style="edgeLabel;html=1;align=center;verticalAlign=middle;resizable=0;points=[];" parent="Q23FpGF2o1uoYtGawiYn-27" vertex="1" connectable="0">
          <mxGeometry x="-0.6489" y="-3" relative="1" as="geometry">
            <mxPoint as="offset" />
          </mxGeometry>
        </mxCell>
        <mxCell id="Q23FpGF2o1uoYtGawiYn-31" value="" style="edgeStyle=orthogonalEdgeStyle;rounded=0;orthogonalLoop=1;jettySize=auto;html=1;entryX=0.5;entryY=1;entryDx=0;entryDy=0;" parent="WIyWlLk6GJQsqaUBKTNV-1" source="Q23FpGF2o1uoYtGawiYn-25" target="Q23FpGF2o1uoYtGawiYn-33" edge="1">
          <mxGeometry relative="1" as="geometry">
            <mxPoint x="1040" y="480" as="targetPoint" />
          </mxGeometry>
        </mxCell>
        <mxCell id="Q23FpGF2o1uoYtGawiYn-32" value="No?" style="edgeLabel;html=1;align=center;verticalAlign=middle;resizable=0;points=[];" parent="Q23FpGF2o1uoYtGawiYn-31" vertex="1" connectable="0">
          <mxGeometry x="-0.1636" y="-1" relative="1" as="geometry">
            <mxPoint as="offset" />
          </mxGeometry>
        </mxCell>
        <mxCell id="Q23FpGF2o1uoYtGawiYn-25" value="Media Item missing Title?" style="rhombus;whiteSpace=wrap;html=1;rounded=1;glass=0;strokeWidth=1;shadow=0;" parent="WIyWlLk6GJQsqaUBKTNV-1" vertex="1">
          <mxGeometry x="940" y="590" width="200" height="120" as="geometry" />
        </mxCell>
        <mxCell id="Q23FpGF2o1uoYtGawiYn-33" value="End for this item" style="ellipse;whiteSpace=wrap;html=1;aspect=fixed;" parent="WIyWlLk6GJQsqaUBKTNV-1" vertex="1">
          <mxGeometry x="1000" y="400" width="80" height="80" as="geometry" />
        </mxCell>
        <mxCell id="Q23FpGF2o1uoYtGawiYn-37" value="" style="edgeStyle=orthogonalEdgeStyle;rounded=0;orthogonalLoop=1;jettySize=auto;html=1;" parent="WIyWlLk6GJQsqaUBKTNV-1" source="Q23FpGF2o1uoYtGawiYn-34" target="Q23FpGF2o1uoYtGawiYn-36" edge="1">
          <mxGeometry relative="1" as="geometry" />
        </mxCell>
        <mxCell id="Q23FpGF2o1uoYtGawiYn-34" value="Call Rekognition for Media item" style="shape=process;whiteSpace=wrap;html=1;backgroundOutline=1;rounded=1;glass=0;strokeWidth=1;shadow=0;" parent="WIyWlLk6GJQsqaUBKTNV-1" vertex="1">
          <mxGeometry x="160" y="960" width="120" height="60" as="geometry" />
        </mxCell>
        <mxCell id="Q23FpGF2o1uoYtGawiYn-38" style="edgeStyle=orthogonalEdgeStyle;rounded=0;orthogonalLoop=1;jettySize=auto;html=1;exitX=1;exitY=0.5;exitDx=0;exitDy=0;entryX=1;entryY=0.75;entryDx=0;entryDy=0;" parent="WIyWlLk6GJQsqaUBKTNV-1" source="Q23FpGF2o1uoYtGawiYn-36" target="Q23FpGF2o1uoYtGawiYn-34" edge="1">
          <mxGeometry relative="1" as="geometry" />
        </mxCell>
        <mxCell id="Q23FpGF2o1uoYtGawiYn-39" value="No?" style="edgeLabel;html=1;align=center;verticalAlign=middle;resizable=0;points=[];" parent="Q23FpGF2o1uoYtGawiYn-38" vertex="1" connectable="0">
          <mxGeometry x="-0.0162" y="3" relative="1" as="geometry">
            <mxPoint as="offset" />
          </mxGeometry>
        </mxCell>
        <mxCell id="Q23FpGF2o1uoYtGawiYn-41" value="" style="edgeStyle=orthogonalEdgeStyle;rounded=0;orthogonalLoop=1;jettySize=auto;html=1;entryX=0;entryY=0.5;entryDx=0;entryDy=0;exitX=1;exitY=1;exitDx=0;exitDy=0;" parent="WIyWlLk6GJQsqaUBKTNV-1" source="Q23FpGF2o1uoYtGawiYn-36" target="Q23FpGF2o1uoYtGawiYn-48" edge="1">
          <mxGeometry relative="1" as="geometry" />
        </mxCell>
        <mxCell id="Q23FpGF2o1uoYtGawiYn-42" value="Yes?" style="edgeLabel;html=1;align=center;verticalAlign=middle;resizable=0;points=[];" parent="Q23FpGF2o1uoYtGawiYn-41" vertex="1" connectable="0">
          <mxGeometry x="-0.2545" relative="1" as="geometry">
            <mxPoint as="offset" />
          </mxGeometry>
        </mxCell>
        <mxCell id="Q23FpGF2o1uoYtGawiYn-36" value="Valid Response?" style="rhombus;whiteSpace=wrap;html=1;rounded=1;glass=0;strokeWidth=1;shadow=0;" parent="WIyWlLk6GJQsqaUBKTNV-1" vertex="1">
          <mxGeometry x="160" y="1090" width="120" height="120" as="geometry" />
        </mxCell>
        <mxCell id="Q23FpGF2o1uoYtGawiYn-65" value="" style="edgeStyle=orthogonalEdgeStyle;rounded=0;orthogonalLoop=1;jettySize=auto;html=1;" parent="WIyWlLk6GJQsqaUBKTNV-1" source="Q23FpGF2o1uoYtGawiYn-40" target="Q23FpGF2o1uoYtGawiYn-64" edge="1">
          <mxGeometry relative="1" as="geometry" />
        </mxCell>
        <mxCell id="Q23FpGF2o1uoYtGawiYn-40" value="Write response to Mongo" style="shape=process;whiteSpace=wrap;html=1;backgroundOutline=1;rounded=1;glass=0;strokeWidth=1;shadow=0;" parent="WIyWlLk6GJQsqaUBKTNV-1" vertex="1">
          <mxGeometry x="160" y="1320" width="120" height="60" as="geometry" />
        </mxCell>
        <mxCell id="Q23FpGF2o1uoYtGawiYn-45" style="edgeStyle=orthogonalEdgeStyle;rounded=0;orthogonalLoop=1;jettySize=auto;html=1;exitX=0.5;exitY=1;exitDx=0;exitDy=0;entryX=0.5;entryY=0;entryDx=0;entryDy=0;" parent="WIyWlLk6GJQsqaUBKTNV-1" source="Q23FpGF2o1uoYtGawiYn-43" target="Q23FpGF2o1uoYtGawiYn-34" edge="1">
          <mxGeometry relative="1" as="geometry" />
        </mxCell>
        <mxCell id="Q23FpGF2o1uoYtGawiYn-46" value="Yes?" style="edgeLabel;html=1;align=center;verticalAlign=middle;resizable=0;points=[];" parent="Q23FpGF2o1uoYtGawiYn-45" vertex="1" connectable="0">
          <mxGeometry x="0.2" relative="1" as="geometry">
            <mxPoint as="offset" />
          </mxGeometry>
        </mxCell>
        <mxCell id="Q23FpGF2o1uoYtGawiYn-47" style="edgeStyle=orthogonalEdgeStyle;rounded=0;orthogonalLoop=1;jettySize=auto;html=1;exitX=1;exitY=1;exitDx=0;exitDy=0;entryX=0.5;entryY=0;entryDx=0;entryDy=0;" parent="WIyWlLk6GJQsqaUBKTNV-1" source="Q23FpGF2o1uoYtGawiYn-43" target="Q23FpGF2o1uoYtGawiYn-48" edge="1">
          <mxGeometry relative="1" as="geometry">
            <mxPoint x="480" y="950" as="targetPoint" />
            <Array as="points">
              <mxPoint x="250" y="920" />
              <mxPoint x="481" y="920" />
            </Array>
          </mxGeometry>
        </mxCell>
        <mxCell id="Q23FpGF2o1uoYtGawiYn-49" value="No?" style="edgeLabel;html=1;align=center;verticalAlign=middle;resizable=0;points=[];" parent="Q23FpGF2o1uoYtGawiYn-47" vertex="1" connectable="0">
          <mxGeometry x="0.0482" y="-2" relative="1" as="geometry">
            <mxPoint as="offset" />
          </mxGeometry>
        </mxCell>
        <mxCell id="Q23FpGF2o1uoYtGawiYn-43" value="(keywords &amp;lt; 5) ?" style="rhombus;whiteSpace=wrap;html=1;" parent="WIyWlLk6GJQsqaUBKTNV-1" vertex="1">
          <mxGeometry x="160" y="810" width="120" height="80" as="geometry" />
        </mxCell>
        <mxCell id="Q23FpGF2o1uoYtGawiYn-52" value="" style="edgeStyle=orthogonalEdgeStyle;rounded=0;orthogonalLoop=1;jettySize=auto;html=1;" parent="WIyWlLk6GJQsqaUBKTNV-1" source="Q23FpGF2o1uoYtGawiYn-48" target="Q23FpGF2o1uoYtGawiYn-51" edge="1">
          <mxGeometry relative="1" as="geometry" />
        </mxCell>
        <mxCell id="Q23FpGF2o1uoYtGawiYn-55" value="Yes?" style="edgeLabel;html=1;align=center;verticalAlign=middle;resizable=0;points=[];" parent="Q23FpGF2o1uoYtGawiYn-52" vertex="1" connectable="0">
          <mxGeometry x="-0.2889" y="-2" relative="1" as="geometry">
            <mxPoint as="offset" />
          </mxGeometry>
        </mxCell>
        <mxCell id="Q23FpGF2o1uoYtGawiYn-60" style="edgeStyle=orthogonalEdgeStyle;rounded=0;orthogonalLoop=1;jettySize=auto;html=1;exitX=1;exitY=0.5;exitDx=0;exitDy=0;entryX=0.75;entryY=1;entryDx=0;entryDy=0;" parent="WIyWlLk6GJQsqaUBKTNV-1" source="Q23FpGF2o1uoYtGawiYn-48" target="Q23FpGF2o1uoYtGawiYn-40" edge="1">
          <mxGeometry relative="1" as="geometry">
            <Array as="points">
              <mxPoint x="590" y="990" />
              <mxPoint x="590" y="1420" />
              <mxPoint x="250" y="1420" />
            </Array>
          </mxGeometry>
        </mxCell>
        <mxCell id="Q23FpGF2o1uoYtGawiYn-61" value="No?" style="edgeLabel;html=1;align=center;verticalAlign=middle;resizable=0;points=[];" parent="Q23FpGF2o1uoYtGawiYn-60" vertex="1" connectable="0">
          <mxGeometry x="-0.5902" y="2" relative="1" as="geometry">
            <mxPoint as="offset" />
          </mxGeometry>
        </mxCell>
        <mxCell id="Q23FpGF2o1uoYtGawiYn-48" value="Missing Description or Title?" style="rhombus;whiteSpace=wrap;html=1;" parent="WIyWlLk6GJQsqaUBKTNV-1" vertex="1">
          <mxGeometry x="390" y="950" width="180" height="80" as="geometry" />
        </mxCell>
        <mxCell id="Q23FpGF2o1uoYtGawiYn-54" style="edgeStyle=orthogonalEdgeStyle;rounded=0;orthogonalLoop=1;jettySize=auto;html=1;exitX=0.5;exitY=1;exitDx=0;exitDy=0;entryX=0.5;entryY=0;entryDx=0;entryDy=0;" parent="WIyWlLk6GJQsqaUBKTNV-1" source="Q23FpGF2o1uoYtGawiYn-51" target="Q23FpGF2o1uoYtGawiYn-53" edge="1">
          <mxGeometry relative="1" as="geometry" />
        </mxCell>
        <mxCell id="Q23FpGF2o1uoYtGawiYn-51" value="Call OpenAI API" style="shape=process;whiteSpace=wrap;html=1;backgroundOutline=1;" parent="WIyWlLk6GJQsqaUBKTNV-1" vertex="1">
          <mxGeometry x="420" y="1120" width="120" height="60" as="geometry" />
        </mxCell>
        <mxCell id="Q23FpGF2o1uoYtGawiYn-56" style="edgeStyle=orthogonalEdgeStyle;rounded=0;orthogonalLoop=1;jettySize=auto;html=1;exitX=0;exitY=0.5;exitDx=0;exitDy=0;entryX=1;entryY=0.5;entryDx=0;entryDy=0;" parent="WIyWlLk6GJQsqaUBKTNV-1" source="Q23FpGF2o1uoYtGawiYn-53" target="Q23FpGF2o1uoYtGawiYn-40" edge="1">
          <mxGeometry relative="1" as="geometry" />
        </mxCell>
        <mxCell id="Q23FpGF2o1uoYtGawiYn-57" value="Yes?" style="edgeLabel;html=1;align=center;verticalAlign=middle;resizable=0;points=[];" parent="Q23FpGF2o1uoYtGawiYn-56" vertex="1" connectable="0">
          <mxGeometry x="-0.3677" y="1" relative="1" as="geometry">
            <mxPoint as="offset" />
          </mxGeometry>
        </mxCell>
        <mxCell id="Q23FpGF2o1uoYtGawiYn-58" style="edgeStyle=orthogonalEdgeStyle;rounded=0;orthogonalLoop=1;jettySize=auto;html=1;exitX=1;exitY=0.5;exitDx=0;exitDy=0;entryX=1;entryY=0.75;entryDx=0;entryDy=0;" parent="WIyWlLk6GJQsqaUBKTNV-1" source="Q23FpGF2o1uoYtGawiYn-53" target="Q23FpGF2o1uoYtGawiYn-51" edge="1">
          <mxGeometry relative="1" as="geometry" />
        </mxCell>
        <mxCell id="Q23FpGF2o1uoYtGawiYn-59" value="No?" style="edgeLabel;html=1;align=center;verticalAlign=middle;resizable=0;points=[];" parent="Q23FpGF2o1uoYtGawiYn-58" vertex="1" connectable="0">
          <mxGeometry x="-0.2089" y="-2" relative="1" as="geometry">
            <mxPoint as="offset" />
          </mxGeometry>
        </mxCell>
        <mxCell id="Q23FpGF2o1uoYtGawiYn-53" value="Valid Response?" style="rhombus;whiteSpace=wrap;html=1;rounded=1;glass=0;strokeWidth=1;shadow=0;" parent="WIyWlLk6GJQsqaUBKTNV-1" vertex="1">
          <mxGeometry x="420" y="1290" width="120" height="120" as="geometry" />
        </mxCell>
        <mxCell id="Q23FpGF2o1uoYtGawiYn-67" value="" style="edgeStyle=orthogonalEdgeStyle;rounded=0;orthogonalLoop=1;jettySize=auto;html=1;" parent="WIyWlLk6GJQsqaUBKTNV-1" source="Q23FpGF2o1uoYtGawiYn-64" target="Q23FpGF2o1uoYtGawiYn-66" edge="1">
          <mxGeometry relative="1" as="geometry" />
        </mxCell>
        <mxCell id="Q23FpGF2o1uoYtGawiYn-64" value="JXA Script Updates Media Item with an additional metadata" style="whiteSpace=wrap;html=1;rounded=1;glass=0;strokeWidth=1;shadow=0;" parent="WIyWlLk6GJQsqaUBKTNV-1" vertex="1">
          <mxGeometry x="160" y="1460" width="120" height="60" as="geometry" />
        </mxCell>
        <mxCell id="Q23FpGF2o1uoYtGawiYn-69" value="" style="edgeStyle=orthogonalEdgeStyle;rounded=0;orthogonalLoop=1;jettySize=auto;html=1;" parent="WIyWlLk6GJQsqaUBKTNV-1" source="Q23FpGF2o1uoYtGawiYn-66" target="Q23FpGF2o1uoYtGawiYn-68" edge="1">
          <mxGeometry relative="1" as="geometry" />
        </mxCell>
        <mxCell id="Q23FpGF2o1uoYtGawiYn-66" value="Delete local copy of media item" style="shape=process;whiteSpace=wrap;html=1;backgroundOutline=1;rounded=1;glass=0;strokeWidth=1;shadow=0;" parent="WIyWlLk6GJQsqaUBKTNV-1" vertex="1">
          <mxGeometry x="160" y="1600" width="120" height="60" as="geometry" />
        </mxCell>
        <mxCell id="Q23FpGF2o1uoYtGawiYn-68" value="End" style="ellipse;whiteSpace=wrap;html=1;rounded=1;glass=0;strokeWidth=1;shadow=0;" parent="WIyWlLk6GJQsqaUBKTNV-1" vertex="1">
          <mxGeometry x="180" y="1730" width="80" height="80" as="geometry" />
        </mxCell>
      </root>
    </mxGraphModel>
  </diagram>
</mxfile>
